<?xml version="1.0" encoding="UTF-8"?>
<svg height="16px" viewBox="0 0 16 16" width="16px" xmlns="http://www.w3.org/2000/svg">
    <path d="m 2 1 h 2 c 1.105469 0 2 0.894531 2 2 v 7 c 0 1.105469 -0.894531 2 -2 2 h -2 c -1.105469 0 -2 -0.894531 -2 -2 v -7 c 0 -1.105469 0.894531 -2 2 -2 z m 0 0"/>
    <path d="m 1 13 h 4 v 2 h -4 z m 0 0"/>
    <path d="m 9 1 c -0.339844 0 -0.671875 0.027344 -1 0.074219 v 4.097656 c 0.3125 -0.109375 0.648438 -0.171875 1 -0.171875 c 1.679688 0 3 1.320312 3 3 s -1.320312 3 -3 3 c -0.351562 0 -0.6875 -0.0625 -1 -0.171875 v 4.097656 c 0.328125 0.046875 0.660156 0.074219 1 0.074219 c 3.84375 0 7 -3.15625 7 -7 s -3.15625 -7 -7 -7 z m 0 0"/>
    <path d="m 9 6 c -0.363281 0 -0.703125 0.097656 -1 0.269531 v 1.730469 c 0 -0.558594 0.441406 -1 1 -1 s 1 0.441406 1 1 s -0.441406 1 -1 1 s -1 -0.441406 -1 -1 v 1.730469 c 0.296875 0.171875 0.636719 0.269531 1 0.269531 c 1.097656 0 2 -0.902344 2 -2 s -0.902344 -2 -2 -2 z m 0 0"/>
</svg>
